HIERARCHY
ROOT hips
{
  OFFSET 0 10.6860622 2.3727825e-15
  CHANNELS 6 Xposition Yposition Zposition Yrotation Xrotation Zrotation
  JOINT leftUpperLeg
  {
    OFFSET 0.6642549969 -0.9402397400000004 0
    CHANNELS 3 Yrotation Xrotation Zrotation
    JOINT leftLowerLeg
    {
      OFFSET 0 -3.997221335632195 0
      CHANNELS 3 Yrotation Xrotation Zrotation
      JOINT leftFoot
      {
        OFFSET -0.13777839790000004 -4.6145792000000005 -0.22186036399999998
        CHANNELS 3 Yrotation Xrotation Zrotation
        JOINT leftToes
        {
          OFFSET -0.03777410834999995 -0.9130806927000008 0.85230013
          CHANNELS 3 Yrotation Xrotation Zrotation
          End Site
          {
            OFFSET -0.03777410834999995 -0.9130806927000008 0.85230013
          }
        }
      }
    }
  }
  JOINT rightUpperLeg
  {
    OFFSET -0.6642778626 -0.9402397400000004 0
    CHANNELS 3 Yrotation Xrotation Zrotation
    JOINT rightLowerLeg
    {
      OFFSET 0 -3.997221452859387 0
      CHANNELS 3 Yrotation Xrotation Zrotation
      JOINT rightFoot
      {
        OFFSET 0.1377926176 -4.6145792000000005 -0.22185782299999995
        CHANNELS 3 Yrotation Xrotation Zrotation
        JOINT rightToes
        {
          OFFSET 0.037780746850000047 -0.9130806927000008 0.85230167
          CHANNELS 3 Yrotation Xrotation Zrotation
          End Site
          {
            OFFSET 0.037780746850000047 -0.9130806927000008 0.85230167
          }
        }
      }
    }
  }
  JOINT spine
  {
    OFFSET 0 0.13988381660000015 0
    CHANNELS 3 Yrotation Xrotation Zrotation
    JOINT chest
    {
      OFFSET 0 0.6191039003973773 0
      CHANNELS 3 Yrotation Xrotation Zrotation
      JOINT upperChest
      {
        OFFSET 0 0.9855186130586943 0
        CHANNELS 3 Yrotation Xrotation Zrotation
        JOINT leftShoulder
        {
          OFFSET 0.1807663869 1.5087829790000005 0
          CHANNELS 3 Yrotation Xrotation Zrotation
          JOINT leftUpperArm
          {
            OFFSET 0.5985063006419806 0 0
            CHANNELS 3 Yrotation Xrotation Zrotation
            JOINT leftLowerArm
            {
              OFFSET 2.2993332369501065 0 0
              CHANNELS 3 Yrotation Xrotation Zrotation
              JOINT leftHand
              {
                OFFSET 2.395047042602395 0 0
                CHANNELS 3 Yrotation Xrotation Zrotation
                JOINT leftIndexProximal
                {
                  OFFSET 0.5766295810000004 0.04556643899499946 0.17265095988184
                  CHANNELS 3 Yrotation Xrotation Zrotation
                  JOINT leftIndexIntermediate
                  {
                    OFFSET 0.2957229000000008 -0.019352197700001517 -0.007932640616999987
                    CHANNELS 3 Yrotation Xrotation Zrotation
                    JOINT leftIndexDistal
                    {
                      OFFSET 0.19008243099999922 -0.012484908149998475 -0.002786250786000012
                      CHANNELS 3 Yrotation Xrotation Zrotation
                      End Site
                      {
                        OFFSET 0.19008243099999922 -0.012484908149998475 -0.002786250786000012
                      }
                    }
                  }
                }
                JOINT leftMiddleProximal
                {
                  OFFSET 0.5834975091000001 0.0524350405149987 0.02204081888183999
                  CHANNELS 3 Yrotation Xrotation Zrotation
                  JOINT leftMiddleIntermediate
                  {
                    OFFSET 0.33880573540000003 -0.019871473270000717 -0.00000971183179999946
                    CHANNELS 3 Yrotation Xrotation Zrotation
                    JOINT leftMiddleDistal
                    {
                      OFFSET 0.20676022730000088 -0.012221336379999448 0.0001471936708000235
                      CHANNELS 3 Yrotation Xrotation Zrotation
                      End Site
                      {
                        OFFSET 0.20676022730000088 -0.012221336379999448 0.0001471936708000235
                      }
                    }
                  }
                }
                JOINT leftLittleProximal
                {
                  OFFSET 0.5344154683999995 -0.012880921405001189 -0.24414037221816004
                  CHANNELS 3 Yrotation Xrotation Zrotation
                  JOINT leftLittleIntermediate
                  {
                    OFFSET 0.21758961730000093 -0.011650919939999227 0.011893592810000034
                    CHANNELS 3 Yrotation Xrotation Zrotation
                    JOINT leftLittleDistal
                    {
                      OFFSET 0.1475273964999999 -0.008152365682999818 0.006001092492999946
                      CHANNELS 3 Yrotation Xrotation Zrotation
                      End Site
                      {
                        OFFSET 0.1475273964999999 -0.008152365682999818 0.006001092492999946
                      }
                    }
                  }
                }
                JOINT leftRingProximal
                {
                  OFFSET 0.5799399463000003 0.026911854694997794 -0.12150566991816003
                  CHANNELS 3 Yrotation Xrotation Zrotation
                  JOINT leftRingIntermediate
                  {
                    OFFSET 0.26167887460000006 -0.013480186499999602 0.010996293000000053
                    CHANNELS 3 Yrotation Xrotation Zrotation
                    JOINT leftRingDistal
                    {
                      OFFSET 0.17667108799999987 -0.008990287899999228 0.0055541023999999065
                      CHANNELS 3 Yrotation Xrotation Zrotation
                      End Site
                      {
                        OFFSET 0.17667108799999987 -0.008990287899999228 0.0055541023999999065
                      }
                    }
                  }
                }
                JOINT leftThumbProximal
                {
                  OFFSET 0.11018806699999972 -0.09448718900500053 0.17047963138184
                  CHANNELS 3 Yrotation Xrotation Zrotation
                  JOINT leftThumbIntermediate
                  {
                    OFFSET 0.31062601459999983 -0.08126270900000132 0.15443142000000007
                    CHANNELS 3 Yrotation Xrotation Zrotation
                    JOINT leftThumbDistal
                    {
                      OFFSET 0.21627175790000086 -0.08833193599999878 0.018771167799999988
                      CHANNELS 3 Yrotation Xrotation Zrotation
                      End Site
                      {
                        OFFSET 0.21627175790000086 -0.08833193599999878 0.018771167799999988
                      }
                    }
                  }
                }
              }
            }
          }
        }
        JOINT neck
        {
          OFFSET 0 1.5463305265074576 0
          CHANNELS 3 Yrotation Xrotation Zrotation
          JOINT head
          {
            OFFSET 0 0.8456443600000344 0
            CHANNELS 3 Yrotation Xrotation Zrotation
            JOINT leftEye
            {
              OFFSET 0.30408573140000006 0.5104519199999995 0.1276382305
              CHANNELS 3 Yrotation Xrotation Zrotation
              End Site
              {
                OFFSET 0.30408573140000006 0.5104519199999995 0.1276382305
              }
            }
            JOINT rightEye
            {
              OFFSET -0.30409491089999996 0.5104519199999995 0.1276379445
              CHANNELS 3 Yrotation Xrotation Zrotation
              End Site
              {
                OFFSET -0.30409491089999996 0.5104519199999995 0.1276379445
              }
            }
            JOINT jaw
            {
              OFFSET -3.155239131000001e-7 -0.11984121820000082 0.60178107
              CHANNELS 3 Yrotation Xrotation Zrotation
              End Site
              {
                OFFSET -3.155239131000001e-7 -0.11984121820000082 0.60178107
              }
            }
          }
        }
        JOINT rightShoulder
        {
          OFFSET -0.1807303465 1.5087829790000005 0
          CHANNELS 3 Yrotation Xrotation Zrotation
          JOINT rightUpperArm
          {
            OFFSET -0.5985063796536958 0 0
            CHANNELS 3 Yrotation Xrotation Zrotation
            JOINT rightLowerArm
            {
              OFFSET -2.2993322059002854 0 0
              CHANNELS 3 Yrotation Xrotation Zrotation
              JOINT rightHand
              {
                OFFSET -2.395045314457259 0 0
                CHANNELS 3 Yrotation Xrotation Zrotation
                JOINT rightIndexProximal
                {
                  OFFSET -0.5764487688300002 0.0441371204405987 0.17361932004999997
                  CHANNELS 3 Yrotation Xrotation Zrotation
                  JOINT rightIndexIntermediate
                  {
                    OFFSET -0.29573011380000047 -0.01934826376999843 -0.007698921482999974
                    CHANNELS 3 Yrotation Xrotation Zrotation
                    JOINT rightIndexDistal
                    {
                      OFFSET -0.19008373999999884 -0.012503266380000655 -0.0026365778999999897
                      CHANNELS 3 Yrotation Xrotation Zrotation
                      End Site
                      {
                        OFFSET -0.19008373999999884 -0.012503266380000655 -0.0026365778999999897
                      }
                    }
                  }
                }
                JOINT rightMiddleProximal
                {
                  OFFSET -0.5834852037300005 0.05211639405060153 0.02307162440000001
                  CHANNELS 3 Yrotation Xrotation Zrotation
                  JOINT rightMiddleIntermediate
                  {
                    OFFSET -0.33880114510000003 -0.019952774050000954 0.0002455003561999819
                    CHANNELS 3 Yrotation Xrotation Zrotation
                    JOINT rightMiddleDistal
                    {
                      OFFSET -0.20675694929999955 -0.012273788999999091 0.00030209124000002766
                      CHANNELS 3 Yrotation Xrotation Zrotation
                      End Site
                      {
                        OFFSET -0.20675694929999955 -0.012273788999999091 0.00030209124000002766
                      }
                    }
                  }
                }
                JOINT rightLittleProximal
                {
                  OFFSET -0.5346811737299992 -0.011214256288399227 -0.24363941305000003
                  CHANNELS 3 Yrotation Xrotation Zrotation
                  JOINT rightLittleIntermediate
                  {
                    OFFSET -0.21757715980000092 -0.011771559690000988 0.01201554387
                    CHANNELS 3 Yrotation Xrotation Zrotation
                    JOINT rightLittleDistal
                    {
                      OFFSET -0.1475201849000004 -0.00822055339600003 0.006082065407000015
                      CHANNELS 3 Yrotation Xrotation Zrotation
                      End Site
                      {
                        OFFSET -0.1475201849000004 -0.00822055339600003 0.006082065407000015
                      }
                    }
                  }
                }
                JOINT rightRingProximal
                {
                  OFFSET -0.5800810755299999 0.027657985680600072 -0.12066365025000003
                  CHANNELS 3 Yrotation Xrotation Zrotation
                  JOINT rightRingIntermediate
                  {
                    OFFSET -0.26166445029999974 -0.013623118409999302 0.011164098990000045
                    CHANNELS 3 Yrotation Xrotation Zrotation
                    JOINT rightRingDistal
                    {
                      OFFSET -0.17666387530000027 -0.009072900100000503 0.005668185599999959
                      CHANNELS 3 Yrotation Xrotation Zrotation
                      End Site
                      {
                        OFFSET -0.17666387530000027 -0.009072900100000503 0.005668185599999959
                      }
                    }
                  }
                }
                JOINT rightThumbProximal
                {
                  OFFSET -0.10997596379000074 -0.09577489355940072 0.16989765924999997
                  CHANNELS 3 Yrotation Xrotation Zrotation
                  JOINT rightThumbIntermediate
                  {
                    OFFSET -0.31036620999999986 -0.08229339117999834 0.15440884469999996
                    CHANNELS 3 Yrotation Xrotation Zrotation
                    JOINT rightThumbDistal
                    {
                      OFFSET -0.21631306399999906 -0.08825326400000111 0.018656797720000014
                      CHANNELS 3 Yrotation Xrotation Zrotation
                      End Site
                      {
                        OFFSET -0.21631306399999906 -0.08825326400000111 0.018656797720000014
                      }
                    }
                  }
                }
              }
            }
          }
        }
      }
    }
  }
}
MOTION
Frames: 9
Frame Time: 0.03333333333333333
0 11.682712981546562 0 0 0 0 0 0 -5.826343164929014 -0.3712483961610101 -3.6333298826370974 5.838118207697276 0 0 0 0 0 0 0 0 5.826343164929014 0.3712483961610101 -3.6333298826370974 -5.838118207697276 0 0 0 0 0 0 0 -4.610651315171937 0 0 3.0831277533083026 0 0 0 0 0 1.5275236235667615 0 0 0 0 0 0 0 0 0 0 0 0 0 0 0 0 0 0 0 0 0 0 0 0 0 0 0 0 0 0 0 0 0 0 0 0 0 0 0 0 0 0 0 0 0 0 0 0 0 0 0 0 0 0 0 0 1.5275236235667615 0 0 0 0 0 0 0 0 0 0 0 0 0 0 1.5275236235667615 0 0 0 0 0 0 0 0 0 0 0 0 0 0 0 0 0 0 0 0 0 0 0 0 0 0 0 0 0 0 0 0 0 0 0 0 0 0 0 0 0 0 0 0 0 0 0 0 0 0 0 0 0 0 0
5.366740186748297 -8.751084599882905 4.602483532082476 0 70.99705918643262 0 -68.99468895657449 -69.64375703798592 124.46795936748029 172.85184818783125 50.85667760996963 168.41197074221435 1.8019556944665436 17.517340438427567 5.426572263196156 0 0 0 69.00022346985217 -69.6432367142732 -124.47938073368499 -172.84450581011473 50.855747108803605 -168.40478183274166 -1.806134536349692 17.51711661556352 -5.430743516091861 0 0 0 -0.7604956329634505 46.86503330171605 -1.3232253047435556 -0.49607078791084014 -29.354300741340737 -0.39640218864122595 0 0 0 0.025759621736044843 1.3347641303337436 -8.002015108760572 -12.757250831363733 -63.19289558598719 -65.24436812099718 -122.02924877479691 53.99729337867898 -0.013737118100937662 -0.8851479853889732 7.145332871015061 -7.0554020870324345 0 0 0 0 0 0 0 0 0 0 0 0 0 0 0 0 0 0 0 0 0 0 0 0 0 0 0 0 0 0 0 0 0 0 0 0 0 0 0 0 0 0 0 0 0 0 -22.47874468588649 0 -0.0016282364711731078 -22.342704173751944 -0.05493003154151075 0 0 0 0 0 0 0 0 0 -0.029243402907338244 1.3350069881234694 7.998422164999694 12.757277141944972 -63.18997276022108 65.23834977433427 121.98847081357344 54.00072706964762 -0.008943899419738303 0.8814119573451419 7.145573798784352 7.051663206031629 0 0 0 0 0 0 0 0 0 0 0 0 0 0 0 0 0 0 0 0 0 0 0 0 0 0 0 0 0 0 0 0 0 0 0 0 0 0 0 0 0 0 0 0 0
5.366740186748297 -8.751084599882905 4.592271742943822 0 70.99705918643262 0 -69.3829595843429 -69.58760608521168 124.99349899245061 172.85184818783125 50.85667760996963 168.41197074221435 1.7719630187597797 17.561800716938514 5.603159220586322 0 0 0 69.30011377678417 -69.54899324434734 -124.92300242005491 -172.84450581011473 50.855747108803605 -168.40478183274166 -1.7133232437117492 17.582022498874892 -5.605381911037024 0 0 0 -0.7604956329634505 46.86503330171605 -1.3232253047435556 -0.49435839660524816 -28.96559503716476 -0.40014622712137066 0 0 0 0.5043329638531119 0.7666859475575004 -7.802207409555523 -12.797521500703356 -63.16790964463397 -65.43899860429563 -122.02924877479691 53.99729337867898 -0.013737118100937662 -0.5396080296718971 6.894861704118729 -7.067509796604439 0 0 0 0 0 0 0 0 0 0 0 0 0 0 0 0 0 0 0 0 0 0 0 0 0 0 0 0 0 0 0 0 0 0 0 0 0 0 0 0 0 0 0 0 0 0 -23.033807963840324 0 -0.0016635953837560802 -22.675967765039477 -0.05495365214503844 0 0 0 0 0 0 0 0 0 -0.5278465232330984 0.7582250486259307 7.821183006988754 12.795669711512248 -63.15986816522072 65.43572616526261 121.98847081357344 54.00072706964762 -0.008942197919673277 0.5450803928620771 6.883013728333008 7.076723371697048 0 0 0 0 0 0 0 0 0 0 0 0 0 0 0 0 0 0 0 0 0 0 0 0 0 0 0 0 0 0 0 0 0 0 0 0 0 0 0 0 0 0 0 0 0
5.366740186748297 -8.751084599882905 4.58206049058971 0 70.99705918643262 0 -69.76878322253482 -69.53022564737857 125.51664298792271 172.85184818783125 50.85667760996963 168.41197074221435 1.742105532320364 17.606345366966714 5.779770746306153 0 0 0 69.59666081347251 -69.45394727461073 -125.36336569894813 -172.84450581011473 50.855747108803605 -168.40478183274166 -1.620680032163971 17.647202550937905 -5.779984330905423 0 0 0 -0.7604956329634505 46.86503330171605 -1.3232253047435556 -0.49268122669383557 -28.576815256058605 -0.4038636910071469 0 0 0 0.9812237559527082 0.19655175207820474 -7.607027909044345 -12.837918799077682 -63.14299814130682 -65.63354425423455 -122.02924693064163 53.99729918840759 -0.013735417424929265 -0.19411683162903423 6.644410700894115 -7.081133729782891 0 0 0 0 0 0 0 0 0 0 0 0 0 0 0 0 0 0 0 0 0 0 0 0 0 0 0 0 0 0 0 0 0 0 0 0 0 0 0 0 0 0 0 0 0 0 -23.589080224622762 0 -0.001699183582758345 -23.009271516459457 -0.05497782108647138 0 0 0 0 0 0 0 0 0 -1.0249903178050304 0.1794945833995343 7.648857967898236 12.834271279741266 -63.12980235309426 65.63293200907455 121.98846681062129 54.00072706964762 -0.008947302419868308 0.2087402643852772 6.620542951273671 7.103325355602501 0 0 0 0 0 0 0 0 0 0 0 0 0 0 0 0 0 0 0 0 0 0 0 0 0 0 0 0 0 0 0 0 0 0 0 0 0 0 0 0 0 0 0 0 0
5.366740186748297 -8.751084599882905 4.5718492382356 0 70.99705918643262 0 -70.15201385373688 -69.47159632145298 126.03721720365321 172.85184818783125 50.85667760996963 168.41197074221435 1.7123821101569494 17.650974477832918 5.956406858501016 0 0 0 69.88983512778594 -69.35810915673896 -125.80037544320732 -172.84450581011473 50.855747108803605 -168.40478183274166 -1.5282066292018337 17.71264998330344 -5.954547771218536 0 0 0 -0.7604956329634505 46.86503330171605 -1.32322542008822 -0.4910376787846105 -28.187987040367275 -0.4075554517662827 0 0 0 1.4564771356619524 -0.37554431206316197 -7.416483671863296 -12.878499993373929 -63.118123114836294 -65.8279406545435 -122.02924693064163 53.99729918840759 -0.013735417424929265 0.15132947563785373 6.393999103449862 -7.096274866047354 0 0 0 0 0 0 0 0 0 0 0 0 0 0 0 0 0 0 0 0 0 0 0 0 0 0 0 0 0 0 0 0 0 0 0 0 0 0 0 0 0 0 0 0 0 0 -24.144532382787133 0 -0.001733917053709581 -23.34261774663324 -0.05500097208830873 0 0 0 0 0 0 0 0 0 -1.5207249754544758 -0.401087671976396 7.481448590079286 12.873075306575842 -63.09978274338756 65.82997087954055 121.98847081357344 54.00072706964762 -0.008943899419738303 -0.12761436315430513 6.358182449541644 7.131470902920117 0 0 0 0 0 0 0 0 0 0 0 0 0 0 0 0 0 0 0 0 0 0 0 0 0 0 0 0 0 0 0 0 0 0 0 0 0 0 0 0 0 0 0 0 0
5.366740186748297 -8.751084599882905 4.5616377174892175 0 70.99704869835311 0 -70.53270567805912 -69.41176710493744 126.55529312144468 172.85184818783125 50.85667760996963 168.41197206713304 1.6827969947760815 17.69570068584113 6.133072293323269 0 0 0 70.17961517752539 -69.26146984399321 -126.23404051921275 -172.84450581011473 50.855747108803605 -168.40478183274166 -1.435904361019832 17.778368760001598 -6.129071189192065 0 0 0 -0.7604956329634505 46.86503330171605 -1.3232253047435556 -0.48942936067730747 -27.799087318912743 -0.41122235164760823 0 0 0 1.930133901319502 -0.9495082703726546 -7.230566320378274 -12.919221775475359 -63.09332974602156 -66.02223596147266 -122.02925123747515 53.99729337867898 -0.01374051800841193 0.49673414351540635 6.143639247189502 -7.112930099319519 0 0 0 0 0 0 0 0 0 0 0 0 0 0 0 0 0 0 0 0 0 0 0 0 0 0 0 0 0 0 0 0 0 0 0 0 0 0 0 0 0 0 0 0 0 0 -24.70015165205023 0 -0.0017699765331870517 -23.675995726556753 -0.05502423989152853 0 0 0 0 0 0 0 0 0 -2.0150973959811163 -0.983419007852361 7.318961558199954 12.912093391643012 -63.069816725286266 66.02682782819335 121.98845326279168 54.00072706964762 -0.008943898512762085 -0.46398600493264347 6.095945873173322 7.16115556567227 0 0 0 0 0 0 0 0 0 0 0 0 0 0 0 0 0 0 0 0 0 0 0 0 0 0 0 0 0 0 0 0 0 0 0 0 0 0 0 0 0 0 0 0 0
5.366740186748297 -8.751084599882905 4.5514259283505645 0 70.99705918643262 0 -70.91079887240785 -69.35072854457808 127.07078295287094 172.85184818783125 50.85667760996963 168.41197074221435 1.6533470598764777 17.740509748321678 6.309760701007287 0 0 0 70.46607875942982 -69.16406852947239 -126.66444218097082 -172.84450581011473 50.855747108803605 -168.40478183274166 -1.3437747142295657 17.844355678819916 -6.303555482623214 0 0 0 -0.7604956329634505 46.86503330171605 -1.3232253047435556 -0.4878537411496696 -27.410149050817125 -0.41486369153604963 0 0 0 2.4022399716065173 -1.525246334797394 -7.04928161364658 -12.96008429836405 -63.06860274125469 -66.21643184443909 -122.02925031539777 53.99729337867898 -0.013740519401685134 0.842101484636656 5.893350313455662 -7.131097358935693 0 0 0 0 0 0 0 0 0 0 0 0 0 0 0 0 0 0 0 0 0 0 0 0 0 0 0 0 0 0 0 0 0 0 0 0 0 0 0 0 0 0 0 0 0 0 -25.255890904225208 0 -0.0018051862951661175 -24.009403943344324 -0.055047492752117094 0 0 0 0 0 0 0 0 0 -2.508157326247907 -1.5674019268495316 7.1613956187180055 12.951282103447168 -63.03991165791873 66.22356502106466 121.98847081357344 54.00072706964762 -0.008943899419738303 -0.8003825086074111 5.83384943189083 7.192378082361848 0 0 0 0 0 0 0 0 0 0 0 0 0 0 0 0 0 0 0 0 0 0 0 0 0 0 0 0 0 0 0 0 0 0 0 0 0 0 0 0 0 0 0 0 0
5.366740186748297 -8.751084599882905 4.541214675996454 0 70.99705918643262 0 -71.28622305277406 -69.28850045624674 127.58366513691828 172.85184818783125 50.85667760996963 168.41197074221435 1.6240344152527597 17.78541072108001 6.486473742601978 0 0 0 70.74919689542182 -69.06591510215053 -127.09155921927315 -172.84450581011473 50.855747108803605 -168.40478183274166 -1.251819344672234 17.910612919666583 -6.477998354596498 0 0 0 -0.7604956329634505 46.86503330171605 -1.3232253047435556 -0.4863114351808921 -27.021168233569977 -0.4184805686161048 0 0 0 2.8728416871192026 -2.1026647853478493 -6.872632279619292 -13.001136830133559 -63.043911792008764 -66.41045394864217 -122.02924877479691 53.99729337867898 -0.013737118100937662 1.1874345278753715 5.643145447919761 -7.150774328762288 0 0 0 0 0 0 0 0 0 0 0 0 0 0 0 0 0 0 0 0 0 0 0 0 0 0 0 0 0 0 0 0 0 0 0 0 0 0 0 0 0 0 0 0 0 0 -25.81174372532128 0 -0.0018395432530529576 -24.342837097496886 -0.0550707513635558 0 0 0 0 0 0 0 0 0 -2.999956583271026 -2.1529359173211486 7.00875777177988 12.990638252092818 -63.010082395665016 66.42017516394539 121.98847081357344 54.00072706964762 -0.008943899419738303 -1.1368058339046843 5.571911463344645 7.225134839700191 0 0 0 0 0 0 0 0 0 0 0 0 0 0 0 0 0 0 0 0 0 0 0 0 0 0 0 0 0 0 0 0 0 0 0 0 0 0 0 0 0 0 0 0 0
5.366740186748297 -8.751084599882905 4.531003423642343 0 70.99705918643262 0 -71.65904677841036 -69.22508336156018 128.09394562965323 172.85184818783125 50.85667760996963 168.41197074221435 1.5948600871858256 17.83039473242971 6.663208938214677 0 0 0 71.0290254267976 -68.9670098227567 -127.51545342574632 -172.84450581011473 50.855747108803605 -168.40478183274166 -1.1600406794068412 17.97714087386452 -6.652398409944893 0 0 0 -0.7604956329634505 46.86503330171605 -1.3232253047435556 -0.48480211182491567 -26.632175230214035 -0.42207327014827284 0 0 0 3.3419830276333196 -2.6816670719586866 -6.700612545615724 -13.042320518214048 -63.019279384196956 -66.60438097278302 -122.02924877479691 53.99729337867898 -0.013737118100937662 1.5327376691427996 5.393041639132948 -7.171958872677152 0 0 0 0 0 0 0 0 0 0 0 0 0 0 0 0 0 0 0 0 0 0 0 0 0 0 0 0 0 0 0 0 0 0 0 0 0 0 0 0 0 0 0 0 0 0 -26.367667195621777 0 -0.0018752444857699632 -24.676282293370118 -0.0550940991302538 0 0 0 0 0 0 0 0 0 -3.4905426601045586 -2.7399203499569498 6.861047724842305 13.03020650482958 -62.980306146217444 66.61660473935127 121.98847081357344 54.00072706964762 -0.008943899419738303 -1.4732616976843589 5.310147287297974 7.259426684654666 0 0 0 0 0 0 0 0 0 0 0 0 0 0 0 0 0 0 0 0 0 0 0 0 0 0 0 0 0 0 0 0 0 0 0 0 0 0 0 0 0 0 0 0 0
